{
	"asset":{
		"version":"2.0",
		"generator":"Houdini GLTF 2.0 Exporter"
	},
	"accessors":[
		{
			"bufferView":0,
			"componentType":5125,
			"count":480000,
			"type":"SCALAR",
			"min":[0
			],
			"max":[83999
			]
		},
		{
			"bufferView":1,
			"componentType":5126,
			"count":84000,
			"type":"VEC3",
			"min":[2.95054469e-05,0.00831358694,0.00951458607
			],
			"max":[0.63976562,0.711779177,1
			]
		},
		{
			"bufferView":2,
			"componentType":5126,
			"count":84000,
			"type":"VEC3",
			"min":[0.00243906234,0.00632701814,0.00470091496
			],
			"max":[0.801973462,0.809623599,0.806011677
			]
		},
		{
			"bufferView":3,
			"componentType":5126,
			"count":84000,
			"type":"VEC3",
			"min":[0.0079407692,0.0619546399,0.117889665
			],
			"max":[0.438476682,0.518889546,0.616993666
			]
		},
		{
			"bufferView":4,
			"componentType":5126,
			"count":84000,
			"type":"VEC3",
			"min":[0.000463877281,0.00348091382,0.00849386957
			],
			"max":[0.574084759,0.533760548,0.606397748
			]
		},
		{
			"bufferView":5,
			"componentType":5126,
			"count":84000,
			"type":"VEC3",
			"min":[0.0952280387,0.123629421,0.14813298
			],
			"max":[0.58282131,0.792896807,0.940173686
			]
		},
		{
			"bufferView":6,
			"componentType":5126,
			"count":84000,
			"type":"VEC3",
			"min":[9.73674541e-05,0.0353622064,0.10098426
			],
			"max":[0.606461048,0.819235384,0.988765299
			]
		},
		{
			"bufferView":7,
			"componentType":5126,
			"count":84000,
			"type":"VEC3",
			"min":[1.1742115e-05,1.84774399e-06,1
			],
			"max":[0.199999705,0.849950135,1
			]
		},
		{
			"bufferView":8,
			"componentType":5126,
			"count":84000,
			"type":"VEC2",
			"min":[0.0117511153,0.00443100929
			],
			"max":[0.998183012,0.998203814
			]
		},
		{
			"bufferView":9,
			"componentType":5126,
			"count":84000,
			"type":"VEC3",
			"min":[-2.21621251,-1.86374235,-2.03042936
			],
			"max":[2.24506998,1.85084558,2.02223897
			]
		},
		{
			"bufferView":10,
			"componentType":5126,
			"count":84000,
			"type":"VEC3",
			"min":[-2.20878959,-1.85651302,-2.02297211
			],
			"max":[2.23795176,1.84346759,2.0147717
			]
		},
		{
			"bufferView":11,
			"componentType":5126,
			"count":84000,
			"type":"VEC3",
			"min":[-0.810528934,-2.37436771,-0.81871295
			],
			"max":[0.810008645,2.37863421,0.818633616
			]
		},
		{
			"bufferView":12,
			"componentType":5126,
			"count":84000,
			"type":"VEC3",
			"min":[-2.08896279,-1.97443998,-2.05845213
			],
			"max":[2.05322623,1.9788208,2.07038665
			]
		},
		{
			"bufferView":13,
			"componentType":5126,
			"count":84000,
			"type":"VEC3",
			"min":[2.95054469e-05,0.00831358694,0.00951458607
			],
			"max":[0.63976562,0.711779177,1
			]
		},
		{
			"bufferView":14,
			"componentType":5126,
			"count":84000,
			"type":"VEC3",
			"min":[-2.11045289,-1.80064869,-2.39047933
			],
			"max":[2.09053802,1.8148725,2.39614344
			]
		},
		{
			"bufferView":15,
			"componentType":5126,
			"count":84000,
			"type":"VEC3",
			"min":[-2.26675034,-2.29166508,-2.07798886
			],
			"max":[2.28656077,2.27666092,2.007725
			]
		},
		{
			"bufferView":16,
			"componentType":5126,
			"count":84000,
			"type":"VEC3",
			"min":[-1.310274,-2.07391691,-0.623928428
			],
			"max":[1.33034313,2.07143235,0.623910606
			]
		},
		{
			"bufferView":17,
			"componentType":5126,
			"count":84000,
			"type":"VEC3",
			"min":[-1.5406146,-2.89961076,-1.80051279
			],
			"max":[1.9817363,3.34000564,1.89477336
			]
		},
		{
			"bufferView":18,
			"componentType":5126,
			"count":84000,
			"type":"VEC3",
			"min":[-0.999997735,-0.999999285,-0.999930859
			],
			"max":[0.999997795,0.999999285,0.999930859
			]
		},
		{
			"bufferView":19,
			"componentType":5126,
			"count":480000,
			"type":"VEC4",
			"min":[1,0,0,1
			],
			"max":[1,0,0,1
			]
		},
		{
			"bufferView":20,
			"componentType":5121,
			"count":102,
			"type":"SCALAR",
			"min":[0
			],
			"max":[35
			]
		},
		{
			"bufferView":21,
			"componentType":5126,
			"count":36,
			"type":"VEC3",
			"min":[-35,-5.53000021,-14.8000002
			],
			"max":[35,16.4699993,21.2000008
			]
		},
		{
			"bufferView":22,
			"componentType":5126,
			"count":36,
			"type":"VEC3",
			"min":[0,-1,-1
			],
			"max":[0,0,0
			]
		},
		{
			"bufferView":23,
			"componentType":5126,
			"count":36,
			"type":"VEC4",
			"min":[0.99999994,-4.10845246e-07,0,1
			],
			"max":[1,0,5.08340179e-07,1
			]
		},
		{
			"bufferView":24,
			"componentType":5126,
			"count":36,
			"type":"VEC2",
			"min":[0.001953125,0.227788031
			],
			"max":[0.99802649,0.998046875
			]
		},
		{
			"bufferView":25,
			"componentType":5121,
			"count":6,
			"type":"SCALAR",
			"min":[0
			],
			"max":[3
			]
		},
		{
			"bufferView":26,
			"componentType":5126,
			"count":4,
			"type":"VEC3",
			"min":[-3.75604057,1.98746574,-0.686527193
			],
			"max":[-3.05980825,2.68282652,-0.42307061
			]
		},
		{
			"bufferView":27,
			"componentType":5126,
			"count":4,
			"type":"VEC3",
			"min":[0.263796329,0.114937261,0.957706094
			],
			"max":[0.263796329,0.114937261,0.957706094
			]
		},
		{
			"bufferView":28,
			"componentType":5126,
			"count":4,
			"type":"VEC4",
			"min":[0.0305223633,-0.993372798,0.110810474,1
			],
			"max":[0.0305223651,-0.993372798,0.110810474,1
			]
		},
		{
			"bufferView":29,
			"componentType":5126,
			"count":4,
			"type":"VEC2",
			"min":[0.001953125,0.00197356939
			],
			"max":[0.998026431,0.998046875
			]
		},
		{
			"bufferView":30,
			"componentType":5121,
			"count":6,
			"type":"SCALAR",
			"min":[0
			],
			"max":[3
			]
		},
		{
			"bufferView":31,
			"componentType":5126,
			"count":4,
			"type":"VEC3",
			"min":[-4.20384312,-0.0659692883,-0.971800685
			],
			"max":[-3.55252361,0.665807426,-0.518180609
			]
		},
		{
			"bufferView":32,
			"componentType":5126,
			"count":4,
			"type":"VEC3",
			"min":[0.43066442,0.212598801,0.877114475
			],
			"max":[0.43066442,0.212598801,0.877114475
			]
		},
		{
			"bufferView":33,
			"componentType":5126,
			"count":4,
			"type":"VEC4",
			"min":[0.0283908807,-0.974569321,0.222280353,1
			],
			"max":[0.0283909012,-0.974569321,0.222280368,1
			]
		},
		{
			"bufferView":34,
			"componentType":5126,
			"count":4,
			"type":"VEC2",
			"min":[0.001953125,0.00197356939
			],
			"max":[0.998026431,0.998046875
			]
		},
		{
			"bufferView":35,
			"componentType":5121,
			"count":6,
			"type":"SCALAR",
			"min":[0
			],
			"max":[3
			]
		},
		{
			"bufferView":36,
			"componentType":5126,
			"count":4,
			"type":"VEC3",
			"min":[-3.42786837,-2.84388304,-0.650068104
			],
			"max":[-2.71242666,-2.12615681,-0.171205759
			]
		},
		{
			"bufferView":37,
			"componentType":5126,
			"count":4,
			"type":"VEC3",
			"min":[0.487165034,0.232250974,0.84186089
			],
			"max":[0.487165034,0.232250974,0.84186089
			]
		},
		{
			"bufferView":38,
			"componentType":5126,
			"count":4,
			"type":"VEC4",
			"min":[0.164354965,-0.971145868,0.172809497,1
			],
			"max":[0.16435504,-0.971145868,0.172809526,1
			]
		},
		{
			"bufferView":39,
			"componentType":5126,
			"count":4,
			"type":"VEC2",
			"min":[0.001953125,0.00197356939
			],
			"max":[0.998026431,0.998046875
			]
		},
		{
			"bufferView":40,
			"componentType":5121,
			"count":6,
			"type":"SCALAR",
			"min":[0
			],
			"max":[3
			]
		},
		{
			"bufferView":41,
			"componentType":5126,
			"count":4,
			"type":"VEC3",
			"min":[3.3885026,2.60643673,-0.488836795
			],
			"max":[4.02477169,3.30179739,-0.049662739
			]
		},
		{
			"bufferView":42,
			"componentType":5126,
			"count":4,
			"type":"VEC3",
			"min":[-0.526407421,0.114937268,0.84242785
			],
			"max":[-0.526407421,0.114937268,0.84242785
			]
		},
		{
			"bufferView":43,
			"componentType":5126,
			"count":4,
			"type":"VEC4",
			"min":[-0.0609077327,-0.993372738,0.097472176,1
			],
			"max":[-0.0609077178,-0.993372738,0.097472176,1
			]
		},
		{
			"bufferView":44,
			"componentType":5126,
			"count":4,
			"type":"VEC2",
			"min":[0.001953125,0.00197356939
			],
			"max":[0.998026431,0.998046875
			]
		},
		{
			"bufferView":45,
			"componentType":5121,
			"count":6,
			"type":"SCALAR",
			"min":[0
			],
			"max":[3
			]
		},
		{
			"bufferView":46,
			"componentType":5126,
			"count":4,
			"type":"VEC3",
			"min":[4.38576221,0.485908508,-0.389451146
			],
			"max":[5.07966328,1.17161119,0.0339485854
			]
		},
		{
			"bufferView":47,
			"componentType":5126,
			"count":4,
			"type":"VEC3",
			"min":[-0.413986295,0.201078042,0.88779676
			],
			"max":[-0.413986295,0.201078042,0.88779676
			]
		},
		{
			"bufferView":48,
			"componentType":5126,
			"count":4,
			"type":"VEC4",
			"min":[-0.0849792436,-0.979575217,0.182238564,1
			],
			"max":[-0.0849792361,-0.979575217,0.182238594,1
			]
		},
		{
			"bufferView":49,
			"componentType":5126,
			"count":4,
			"type":"VEC2",
			"min":[0.001953125,0.00197356939
			],
			"max":[0.998026431,0.998046875
			]
		},
		{
			"bufferView":50,
			"componentType":5121,
			"count":6,
			"type":"SCALAR",
			"min":[0
			],
			"max":[3
			]
		},
		{
			"bufferView":51,
			"componentType":5126,
			"count":4,
			"type":"VEC3",
			"min":[3.90295672,-2.74236131,-0.371585816
			],
			"max":[4.5229435,-2.01353288,0.131139606
			]
		},
		{
			"bufferView":52,
			"componentType":5126,
			"count":4,
			"type":"VEC3",
			"min":[-0.541540921,0.174254164,0.822416604
			],
			"max":[-0.541540921,0.174254164,0.822416604
			]
		},
		{
			"bufferView":53,
			"componentType":5126,
			"count":4,
			"type":"VEC4",
			"min":[-0.0462969132,-0.982979,0.177788869,1
			],
			"max":[-0.0462968834,-0.982979,0.177788883,1
			]
		},
		{
			"bufferView":54,
			"componentType":5126,
			"count":4,
			"type":"VEC2",
			"min":[0.001953125,0.00197356939
			],
			"max":[0.998026431,0.998046875
			]
		}
	],
	"buffers":[
		{
			"uri":"morph_particles_data.bin",
			"byteLength":27411032,
			"name":"main_buffer"
		}
	],
	"bufferViews":[
		{
			"buffer":0,
			"byteLength":1920000,
			"target":34963
		},
		{
			"buffer":0,
			"byteOffset":1920000,
			"byteLength":1008000,
			"target":34962
		},
		{
			"buffer":0,
			"byteOffset":2928000,
			"byteLength":1008000,
			"target":34962
		},
		{
			"buffer":0,
			"byteOffset":3936000,
			"byteLength":1008000,
			"target":34962
		},
		{
			"buffer":0,
			"byteOffset":4944000,
			"byteLength":1008000,
			"target":34962
		},
		{
			"buffer":0,
			"byteOffset":5952000,
			"byteLength":1008000,
			"target":34962
		},
		{
			"buffer":0,
			"byteOffset":6960000,
			"byteLength":1008000,
			"target":34962
		},
		{
			"buffer":0,
			"byteOffset":7968000,
			"byteLength":1008000,
			"target":34962
		},
		{
			"buffer":0,
			"byteOffset":8976000,
			"byteLength":672000,
			"target":34962
		},
		{
			"buffer":0,
			"byteOffset":9648000,
			"byteLength":1008000,
			"target":34962
		},
		{
			"buffer":0,
			"byteOffset":10656000,
			"byteLength":1008000,
			"target":34962
		},
		{
			"buffer":0,
			"byteOffset":11664000,
			"byteLength":1008000,
			"target":34962
		},
		{
			"buffer":0,
			"byteOffset":12672000,
			"byteLength":1008000,
			"target":34962
		},
		{
			"buffer":0,
			"byteOffset":13680000,
			"byteLength":1008000,
			"target":34962
		},
		{
			"buffer":0,
			"byteOffset":14688000,
			"byteLength":1008000,
			"target":34962
		},
		{
			"buffer":0,
			"byteOffset":15696000,
			"byteLength":1008000,
			"target":34962
		},
		{
			"buffer":0,
			"byteOffset":16704000,
			"byteLength":1008000,
			"target":34962
		},
		{
			"buffer":0,
			"byteOffset":17712000,
			"byteLength":1008000,
			"target":34962
		},
		{
			"buffer":0,
			"byteOffset":18720000,
			"byteLength":1008000,
			"target":34962
		},
		{
			"buffer":0,
			"byteOffset":19728000,
			"byteLength":7680000,
			"target":34962
		},
		{
			"buffer":0,
			"byteOffset":27408000,
			"byteLength":102,
			"target":34963
		},
		{
			"buffer":0,
			"byteOffset":27408104,
			"byteLength":432,
			"target":34962
		},
		{
			"buffer":0,
			"byteOffset":27408536,
			"byteLength":432,
			"target":34962
		},
		{
			"buffer":0,
			"byteOffset":27408968,
			"byteLength":576,
			"target":34962
		},
		{
			"buffer":0,
			"byteOffset":27409544,
			"byteLength":288,
			"target":34962
		},
		{
			"buffer":0,
			"byteOffset":27409832,
			"byteLength":6,
			"target":34963
		},
		{
			"buffer":0,
			"byteOffset":27409840,
			"byteLength":48,
			"target":34962
		},
		{
			"buffer":0,
			"byteOffset":27409888,
			"byteLength":48,
			"target":34962
		},
		{
			"buffer":0,
			"byteOffset":27409936,
			"byteLength":64,
			"target":34962
		},
		{
			"buffer":0,
			"byteOffset":27410000,
			"byteLength":32,
			"target":34962
		},
		{
			"buffer":0,
			"byteOffset":27410032,
			"byteLength":6,
			"target":34963
		},
		{
			"buffer":0,
			"byteOffset":27410040,
			"byteLength":48,
			"target":34962
		},
		{
			"buffer":0,
			"byteOffset":27410088,
			"byteLength":48,
			"target":34962
		},
		{
			"buffer":0,
			"byteOffset":27410136,
			"byteLength":64,
			"target":34962
		},
		{
			"buffer":0,
			"byteOffset":27410200,
			"byteLength":32,
			"target":34962
		},
		{
			"buffer":0,
			"byteOffset":27410232,
			"byteLength":6,
			"target":34963
		},
		{
			"buffer":0,
			"byteOffset":27410240,
			"byteLength":48,
			"target":34962
		},
		{
			"buffer":0,
			"byteOffset":27410288,
			"byteLength":48,
			"target":34962
		},
		{
			"buffer":0,
			"byteOffset":27410336,
			"byteLength":64,
			"target":34962
		},
		{
			"buffer":0,
			"byteOffset":27410400,
			"byteLength":32,
			"target":34962
		},
		{
			"buffer":0,
			"byteOffset":27410432,
			"byteLength":6,
			"target":34963
		},
		{
			"buffer":0,
			"byteOffset":27410440,
			"byteLength":48,
			"target":34962
		},
		{
			"buffer":0,
			"byteOffset":27410488,
			"byteLength":48,
			"target":34962
		},
		{
			"buffer":0,
			"byteOffset":27410536,
			"byteLength":64,
			"target":34962
		},
		{
			"buffer":0,
			"byteOffset":27410600,
			"byteLength":32,
			"target":34962
		},
		{
			"buffer":0,
			"byteOffset":27410632,
			"byteLength":6,
			"target":34963
		},
		{
			"buffer":0,
			"byteOffset":27410640,
			"byteLength":48,
			"target":34962
		},
		{
			"buffer":0,
			"byteOffset":27410688,
			"byteLength":48,
			"target":34962
		},
		{
			"buffer":0,
			"byteOffset":27410736,
			"byteLength":64,
			"target":34962
		},
		{
			"buffer":0,
			"byteOffset":27410800,
			"byteLength":32,
			"target":34962
		},
		{
			"buffer":0,
			"byteOffset":27410832,
			"byteLength":6,
			"target":34963
		},
		{
			"buffer":0,
			"byteOffset":27410840,
			"byteLength":48,
			"target":34962
		},
		{
			"buffer":0,
			"byteOffset":27410888,
			"byteLength":48,
			"target":34962
		},
		{
			"buffer":0,
			"byteOffset":27410936,
			"byteLength":64,
			"target":34962
		},
		{
			"buffer":0,
			"byteOffset":27411000,
			"byteLength":32,
			"target":34962
		}
	],
	"cameras":[
		{
			"name":"cam1",
			"type":"perspective",
			"perspective":{
				"aspectRatio":1,
				"yfov":0.660205901,
				"zfar":1718000.25,
				"znear":0.171800032
			}
		}
	],
	"nodes":[
		{
			"children":[1,2,3,4,5,6,7,8,9,10
			],
			"name":"Root"
		},
		{
			"name":"morph_section01",
			"mesh":0
		},
		{
			"matrix":[1,0,0,0,0,1,0,0,0,0,1,0,0,0,13.5657301,1
			],
			"name":"cam1",
			"camera":0
		},
		{
			"name":"backdrop",
			"mesh":1
		},
		{
			"matrix":[1,0,0,0,0,1,0,0,0,0,1,0,0,4.80000019,0,1
			],
			"name":"spotlight_pos"
		},
		{
			"name":"card_01",
			"mesh":2
		},
		{
			"name":"card_02",
			"mesh":3
		},
		{
			"name":"card_03",
			"mesh":4
		},
		{
			"name":"card_04",
			"mesh":5
		},
		{
			"name":"card_05",
			"mesh":6
		},
		{
			"name":"card_06",
			"mesh":7
		}
	],
	"meshes":[
		{
			"primitives":[
				{
					"attributes":{
						"_P_03":12,
						"_P_04":14,
						"TANGENT":19,
						"_P_05":15,
						"_P_06":16,
						"_P_07":17,
						"_COLOR_01":1,
						"_COLOR_02":2,
						"_COLOR_03":3,
						"_COLOR_04":4,
						"NORMAL":18,
						"_COLOR_05":5,
						"_COLOR_06":6,
						"_COLOR_07":7,
						"TEXCOORD_0":8,
						"COLOR_0":13,
						"POSITION":9,
						"_P_01":10,
						"_P_02":11
					},
					"indices":0
				}
			],
			"name":"OUT_particles"
		},
		{
			"primitives":[
				{
					"attributes":{
						"POSITION":21,
						"TANGENT":23,
						"TEXCOORD_0":24,
						"NORMAL":22
					},
					"indices":20
				}
			],
			"name":"OUT_backdrop"
		},
		{
			"primitives":[
				{
					"attributes":{
						"POSITION":26,
						"TANGENT":28,
						"TEXCOORD_0":29,
						"NORMAL":27
					},
					"indices":25
				}
			],
			"name":"OUT_card_01"
		},
		{
			"primitives":[
				{
					"attributes":{
						"POSITION":31,
						"TANGENT":33,
						"TEXCOORD_0":34,
						"NORMAL":32
					},
					"indices":30
				}
			],
			"name":"OUT_card_02"
		},
		{
			"primitives":[
				{
					"attributes":{
						"POSITION":36,
						"TANGENT":38,
						"TEXCOORD_0":39,
						"NORMAL":37
					},
					"indices":35
				}
			],
			"name":"OUT_card_03"
		},
		{
			"primitives":[
				{
					"attributes":{
						"POSITION":41,
						"TANGENT":43,
						"TEXCOORD_0":44,
						"NORMAL":42
					},
					"indices":40
				}
			],
			"name":"OUT_card_04"
		},
		{
			"primitives":[
				{
					"attributes":{
						"POSITION":46,
						"TANGENT":48,
						"TEXCOORD_0":49,
						"NORMAL":47
					},
					"indices":45
				}
			],
			"name":"OUT_card_05"
		},
		{
			"primitives":[
				{
					"attributes":{
						"POSITION":51,
						"TANGENT":53,
						"TEXCOORD_0":54,
						"NORMAL":52
					},
					"indices":50
				}
			],
			"name":"OUT_card_06"
		}
	],
	"scenes":[
		{
			"nodes":[0
			]
		}
	],
	"scene":0
}
